<svg width="24" height="24" viewBox="0 0 24 24" fill="none" xmlns="http://www.w3.org/2000/svg">
<path fill-rule="evenodd" clip-rule="evenodd" d="M11.0911 3.63584C11.734 3.79658 12.1249 4.4481 11.9642 5.09106L11.437 7.20002H14.9631L15.6359 4.50897C15.7966 3.86602 16.4481 3.47511 17.0911 3.63584C17.734 3.79658 18.1249 4.4481 17.9642 5.09106L17.437 7.20002H20.4C21.0628 7.20002 21.6 7.73727 21.6 8.40002C21.6 9.06276 21.0628 9.60002 20.4 9.60002H16.837L15.637 14.4H18C18.6628 14.4 19.2 14.9373 19.2 15.6C19.2 16.2628 18.6628 16.8 18 16.8H15.037L14.3642 19.4911C14.2035 20.134 13.5519 20.5249 12.909 20.3642C12.266 20.2034 11.8751 19.5519 12.0359 18.909L12.5631 16.8H9.03696L8.36419 19.4911C8.20346 20.134 7.55194 20.5249 6.90898 20.3642C6.26603 20.2034 5.87511 19.5519 6.03585 18.909L6.56309 16.8H3.60002C2.93728 16.8 2.40002 16.2628 2.40002 15.6C2.40002 14.9373 2.93728 14.4 3.60002 14.4H7.16309L8.36309 9.60002H6.00002C5.33728 9.60002 4.80002 9.06276 4.80002 8.40002C4.80002 7.73727 5.33728 7.20002 6.00002 7.20002H8.96309L9.63585 4.50897C9.79659 3.86602 10.4481 3.47511 11.0911 3.63584ZM10.837 9.60002L9.63696 14.4H13.1631L14.3631 9.60002H10.837Z" fill="#4F72C6"/>
</svg>
