<svg width="324" height="93" viewBox="0 0 324 93" fill="none" xmlns="http://www.w3.org/2000/svg">
<g clip-path="url(#clip0_6_2)">
<path d="M48.2601 92.35C38.5401 92.35 28.7101 85.98 25.7201 73.72C24.7201 69.63 27.9301 65.71 32.1401 65.71C35.1401 65.71 37.8001 67.74 38.5101 70.66C40.0201 76.86 44.4001 79.19 48.2601 79.19C51.2601 79.19 54.1101 77.86 56.2801 75.46C59.0701 72.36 60.5501 67.72 60.5501 62.04V45.94C60.5501 42.31 63.5001 39.36 67.1301 39.36C70.7601 39.36 73.7101 42.31 73.7101 45.94V62.04C73.7101 73.41 69.5401 80.41 66.0501 84.28C61.4201 89.4 54.9401 92.35 48.2601 92.35Z" fill="black"/>
<path d="M57.89 7.76L45.36 20.29C43.39 18.32 41.36 17.42 39.83 17.83C38.75 18.12 37.86 19.07 37.53 20.32C36.9 22.65 38.18 25.63 41.04 28.49C34.22 21.67 26.54 19.23 19.72 19.78C19.83 18.42 20.06 17.07 20.42 15.74C22.38 8.4 28.07 2.65 35.25 0.720002C43.06 -1.38 51.32 1.19 57.89 7.76Z" fill="#FFB600"/>
<path d="M41.0401 28.48L28.5101 41.01C22.2101 34.71 19.1301 27.15 19.7201 19.77C26.5401 19.21 34.2201 21.66 41.0401 28.48Z" fill="black"/>
<path d="M28.5101 41.01C24.2401 36.74 20.4101 36.69 18.6401 38.46C17.0101 40.09 17.6401 42.66 20.3101 45.33L7.79005 57.86C-3.23995 46.83 -1.39995 33.45 6.12005 25.92C9.57005 22.47 14.3801 20.19 19.7201 19.76C19.1301 27.15 22.2101 34.71 28.5101 41.01Z" fill="#007AFF"/>
<path d="M41.04 28.48L50.65 38.09L44.4 44.35L38.13 50.63L28.51 41.01L41.04 28.48Z" fill="#007AFF"/>
</g>
<path d="M137 18.104H128.144V15.8H148.52V18.104H139.664V41H137V18.104Z" fill="black"/>
<path d="M166.755 32.324H150.915C151.059 34.292 151.815 35.888 153.183 37.112C154.551 38.312 156.279 38.912 158.367 38.912C159.543 38.912 160.623 38.708 161.607 38.3C162.591 37.868 163.443 37.244 164.163 36.428L165.603 38.084C164.763 39.092 163.707 39.86 162.435 40.388C161.187 40.916 159.807 41.18 158.295 41.18C156.351 41.18 154.623 40.772 153.111 39.956C151.623 39.116 150.459 37.964 149.619 36.5C148.779 35.036 148.359 33.38 148.359 31.532C148.359 29.684 148.755 28.028 149.547 26.564C150.363 25.1 151.467 23.96 152.859 23.144C154.275 22.328 155.859 21.92 157.611 21.92C159.363 21.92 160.935 22.328 162.327 23.144C163.719 23.96 164.811 25.1 165.603 26.564C166.395 28.004 166.791 29.66 166.791 31.532L166.755 32.324ZM157.611 24.116C155.787 24.116 154.251 24.704 153.003 25.88C151.779 27.032 151.083 28.544 150.915 30.416H164.343C164.175 28.544 163.467 27.032 162.219 25.88C160.995 24.704 159.459 24.116 157.611 24.116Z" fill="black"/>
<path d="M178.09 21.92C180.562 21.92 182.458 22.544 183.778 23.792C185.098 25.016 185.758 26.84 185.758 29.264V41H183.31V38.048C182.734 39.032 181.882 39.8 180.754 40.352C179.65 40.904 178.33 41.18 176.794 41.18C174.682 41.18 173.002 40.676 171.754 39.668C170.506 38.66 169.882 37.328 169.882 35.672C169.882 34.064 170.458 32.768 171.61 31.784C172.786 30.8 174.646 30.308 177.19 30.308H183.202V29.156C183.202 27.524 182.746 26.288 181.834 25.448C180.922 24.584 179.59 24.152 177.838 24.152C176.638 24.152 175.486 24.356 174.382 24.764C173.278 25.148 172.33 25.688 171.538 26.384L170.386 24.476C171.346 23.66 172.498 23.036 173.842 22.604C175.186 22.148 176.602 21.92 178.09 21.92ZM177.19 39.164C178.63 39.164 179.866 38.84 180.898 38.192C181.93 37.52 182.698 36.56 183.202 35.312V32.216H177.262C174.022 32.216 172.402 33.344 172.402 35.6C172.402 36.704 172.822 37.58 173.662 38.228C174.502 38.852 175.678 39.164 177.19 39.164Z" fill="black"/>
<path d="M216.317 21.92C218.693 21.92 220.553 22.604 221.897 23.972C223.265 25.34 223.949 27.356 223.949 30.02V41H221.393V30.272C221.393 28.304 220.913 26.804 219.953 25.772C219.017 24.74 217.685 24.224 215.957 24.224C213.989 24.224 212.441 24.836 211.313 26.06C210.185 27.26 209.621 28.928 209.621 31.064V41H207.065V30.272C207.065 28.304 206.585 26.804 205.625 25.772C204.689 24.74 203.345 24.224 201.593 24.224C199.649 24.224 198.101 24.836 196.949 26.06C195.821 27.26 195.257 28.928 195.257 31.064V41H192.701V22.064H195.149V25.52C195.821 24.368 196.757 23.48 197.957 22.856C199.157 22.232 200.537 21.92 202.097 21.92C203.681 21.92 205.049 22.256 206.201 22.928C207.377 23.6 208.253 24.596 208.829 25.916C209.525 24.668 210.521 23.696 211.817 23C213.137 22.28 214.637 21.92 216.317 21.92Z" fill="black"/>
<path d="M138.176 91.576C135.904 91.576 133.808 91.16 131.888 90.328C130.835 89.8464 129.887 89.2554 129.044 88.555C127.87 87.5804 127.928 85.845 128.904 84.673V84.673C130.253 83.0553 132.724 83.2529 134.546 84.3069C135.567 84.897 136.649 85.192 137.792 85.192C140.96 85.192 142.544 83.336 142.544 79.624V63.64H130.736V57.4H150.272V79.192C150.272 83.32 149.248 86.424 147.2 88.504C145.152 90.552 142.144 91.576 138.176 91.576Z" fill="#007AFF"/>
<path d="M167.841 64.792C171.841 64.792 174.913 65.752 177.057 67.672C179.201 69.56 180.273 72.424 180.273 76.264V91H173.265V87.784C171.857 90.184 169.233 91.384 165.393 91.384C163.409 91.384 161.681 91.048 160.209 90.376C158.769 89.704 157.665 88.776 156.897 87.592C156.129 86.408 155.745 85.064 155.745 83.56C155.745 81.16 156.641 79.272 158.433 77.896C160.257 76.52 163.057 75.832 166.833 75.832H172.785C172.785 74.2 172.289 72.952 171.297 72.088C170.305 71.192 168.817 70.744 166.833 70.744C165.457 70.744 164.097 70.968 162.753 71.416C161.441 71.832 160.321 72.408 159.393 73.144L156.705 67.912C158.113 66.92 159.793 66.152 161.745 65.608C163.729 65.064 165.761 64.792 167.841 64.792ZM167.265 86.344C168.545 86.344 169.681 86.056 170.673 85.48C171.665 84.872 172.369 83.992 172.785 82.84V80.2H167.649C164.577 80.2 163.041 81.208 163.041 83.224C163.041 84.184 163.409 84.952 164.145 85.528C164.913 86.072 165.953 86.344 167.265 86.344Z" fill="#007AFF"/>
<path d="M202.746 64.792C205.946 64.792 208.522 65.752 210.474 67.672C212.458 69.592 213.45 72.44 213.45 76.216V91H205.962V77.368C205.962 75.32 205.514 73.8 204.618 72.808C203.722 71.784 202.426 71.272 200.73 71.272C198.842 71.272 197.338 71.864 196.218 73.048C195.098 74.2 194.538 75.928 194.538 78.232V91H187.05V65.176H194.202V68.2C195.194 67.112 196.426 66.28 197.898 65.704C199.37 65.096 200.986 64.792 202.746 64.792Z" fill="#007AFF"/>
<path d="M243.469 73.672H250.573V87.304C248.749 88.68 246.637 89.736 244.237 90.472C241.837 91.208 239.421 91.576 236.989 91.576C233.501 91.576 230.365 90.84 227.581 89.368C224.797 87.864 222.605 85.8 221.005 83.176C219.437 80.52 218.653 77.528 218.653 74.2C218.653 70.872 219.437 67.896 221.005 65.272C222.605 62.616 224.813 60.552 227.629 59.08C230.445 57.576 233.613 56.824 237.133 56.824C240.077 56.824 242.749 57.32 245.149 58.312C247.549 59.304 249.565 60.744 251.197 62.632L246.205 67.24C243.805 64.712 240.909 63.448 237.517 63.448C235.373 63.448 233.469 63.896 231.805 64.792C230.141 65.688 228.845 66.952 227.917 68.584C226.989 70.216 226.525 72.088 226.525 74.2C226.525 76.28 226.989 78.136 227.917 79.768C228.845 81.4 230.125 82.68 231.757 83.608C233.421 84.504 235.309 84.952 237.421 84.952C239.661 84.952 241.677 84.472 243.469 83.512V73.672Z" fill="#007AFF"/>
<path d="M269.556 91.384C266.836 91.384 264.388 90.824 262.212 89.704C260.068 88.552 258.388 86.968 257.172 84.952C255.956 82.936 255.348 80.648 255.348 78.088C255.348 75.528 255.956 73.24 257.172 71.224C258.388 69.208 260.068 67.64 262.212 66.52C264.388 65.368 266.836 64.792 269.556 64.792C272.276 64.792 274.708 65.368 276.852 66.52C278.996 67.64 280.676 69.208 281.892 71.224C283.108 73.24 283.716 75.528 283.716 78.088C283.716 80.648 283.108 82.936 281.892 84.952C280.676 86.968 278.996 88.552 276.852 89.704C274.708 90.824 272.276 91.384 269.556 91.384ZM269.556 85.24C271.476 85.24 273.044 84.6 274.26 83.32C275.508 82.008 276.132 80.264 276.132 78.088C276.132 75.912 275.508 74.184 274.26 72.904C273.044 71.592 271.476 70.936 269.556 70.936C267.636 70.936 266.052 71.592 264.804 72.904C263.556 74.184 262.932 75.912 262.932 78.088C262.932 80.264 263.556 82.008 264.804 83.32C266.052 84.6 267.636 85.24 269.556 85.24Z" fill="#007AFF"/>
<path d="M305.522 91.576C302.034 91.576 298.882 90.824 296.066 89.32C293.282 87.816 291.09 85.752 289.49 83.128C287.922 80.472 287.138 77.496 287.138 74.2C287.138 70.904 287.922 67.944 289.49 65.32C291.09 62.664 293.282 60.584 296.066 59.08C298.882 57.576 302.034 56.824 305.522 56.824C309.01 56.824 312.146 57.576 314.93 59.08C317.714 60.584 319.906 62.664 321.506 65.32C323.106 67.944 323.906 70.904 323.906 74.2C323.906 77.496 323.106 80.472 321.506 83.128C319.906 85.752 317.714 87.816 314.93 89.32C312.146 90.824 309.01 91.576 305.522 91.576ZM305.522 84.952C307.506 84.952 309.298 84.504 310.898 83.608C312.498 82.68 313.746 81.4 314.642 79.768C315.57 78.136 316.034 76.28 316.034 74.2C316.034 72.12 315.57 70.264 314.642 68.632C313.746 67 312.498 65.736 310.898 64.84C309.298 63.912 307.506 63.448 305.522 63.448C303.538 63.448 301.746 63.912 300.146 64.84C298.546 65.736 297.282 67 296.354 68.632C295.458 70.264 295.01 72.12 295.01 74.2C295.01 76.28 295.458 78.136 296.354 79.768C297.282 81.4 298.546 82.68 300.146 83.608C301.746 84.504 303.538 84.952 305.522 84.952Z" fill="#007AFF"/>
<defs>
<clipPath id="clip0_6_2">
<rect width="73.71" height="92.35" fill="white"/>
</clipPath>
</defs>
</svg>
