<svg width="136" height="40" viewBox="0 0 136 40" fill="none" xmlns="http://www.w3.org/2000/svg">
<g clip-path="url(#clip0_33_627)">
<path d="M20.2574 39.2273C16.1774 39.2273 12.0513 36.5561 10.7962 31.4148C10.3764 29.6996 11.7239 28.0557 13.491 28.0557C14.7503 28.0557 15.8668 28.907 16.1648 30.1315C16.7987 32.7315 18.6372 33.7086 20.2574 33.7086C21.5167 33.7086 22.713 33.1509 23.6239 32.1444C24.795 30.8444 25.4162 28.8986 25.4162 26.5167V19.7651C25.4162 18.2428 26.6545 17.0057 28.1782 17.0057C29.7019 17.0057 30.9401 18.2428 30.9401 19.7651V26.5167C30.9401 31.2848 29.1898 34.2203 27.7248 35.8432C25.7814 37.9902 23.0614 39.2273 20.2574 39.2273Z" fill="white"/>
<path d="M24.2996 3.75412L19.0401 9.00864C18.2131 8.18251 17.361 7.80509 16.7188 7.97703C16.2655 8.09864 15.8919 8.49703 15.7534 9.02122C15.4889 9.99832 16.0262 11.248 17.2267 12.4474C14.364 9.58735 11.1403 8.56412 8.27759 8.79477C8.32376 8.22445 8.4203 7.65832 8.57142 7.10058C9.39413 4.02251 11.7825 1.61122 14.7964 0.801866C18.0746 -0.0787797 21.5418 0.998962 24.2996 3.75412Z" fill="#FFB600"/>
<path d="M17.2269 12.4432L11.9674 17.6977C9.32295 15.0558 8.03011 11.8855 8.27776 8.79062C11.1405 8.55579 14.3642 9.5832 17.2269 12.4432Z" fill="white"/>
<path d="M11.9673 17.6977C10.1749 15.907 8.56728 15.8861 7.82432 16.6283C7.14012 17.3119 7.40456 18.3896 8.5253 19.5093L3.26997 24.7638C-1.3599 20.1383 -0.587557 14.5273 2.56899 11.3696C4.01713 9.92283 6.03617 8.9667 8.27765 8.78638C8.03 11.8854 9.32283 15.0557 11.9673 17.6977Z" fill="#007AFF"/>
<path d="M17.2268 12.4432L21.2606 16.4732L18.6372 19.0984L16.0053 21.7319L11.9673 17.6978L17.2268 12.4432Z" fill="#007AFF"/>
<path d="M57.5062 8.09205H53.7888V7.12585H62.3417V8.09205H58.6244V17.6936H57.5062V8.09205Z" fill="white"/>
<path d="M69.9959 14.0552H63.3471C63.4075 14.8805 63.7248 15.5498 64.2991 16.0631C64.8733 16.5663 65.5986 16.8179 66.4751 16.8179C66.9687 16.8179 67.422 16.7324 67.8351 16.5613C68.2481 16.3801 68.6057 16.1185 68.9079 15.7763L69.5124 16.4707C69.1598 16.8934 68.7165 17.2155 68.1826 17.4369C67.6588 17.6583 67.0795 17.769 66.4448 17.769C65.6288 17.769 64.9035 17.5979 64.2688 17.2557C63.6442 16.9035 63.1557 16.4204 62.8031 15.8065C62.4505 15.1925 62.2742 14.4981 62.2742 13.7231C62.2742 12.9481 62.4404 12.2537 62.7728 11.6397C63.1154 11.0258 63.5788 10.5477 64.1631 10.2056C64.7574 9.86336 65.4223 9.69226 66.1577 9.69226C66.8931 9.69226 67.553 9.86336 68.1373 10.2056C68.7216 10.5477 69.1799 11.0258 69.5124 11.6397C69.8448 12.2436 70.0111 12.9381 70.0111 13.7231L69.9959 14.0552ZM66.1577 10.6132C65.3921 10.6132 64.7474 10.8597 64.2235 11.3529C63.7097 11.836 63.4176 12.4701 63.3471 13.2551H68.9835C68.913 12.4701 68.6158 11.836 68.0919 11.3529C67.5782 10.8597 66.9334 10.6132 66.1577 10.6132Z" fill="white"/>
<path d="M74.7539 9.69226C75.7916 9.69226 76.5874 9.95394 77.1415 10.4773C77.6956 10.9906 77.9726 11.7555 77.9726 12.772V17.6936H76.945V16.4556C76.7033 16.8683 76.3456 17.1903 75.8721 17.4218C75.4087 17.6533 74.8547 17.769 74.2099 17.769C73.3234 17.769 72.6182 17.5577 72.0944 17.135C71.5705 16.7123 71.3086 16.1537 71.3086 15.4592C71.3086 14.7849 71.5504 14.2414 72.0339 13.8288C72.5276 13.4161 73.3083 13.2098 74.3761 13.2098H76.8997V12.7267C76.8997 12.0423 76.7083 11.524 76.3255 11.1717C75.9427 10.8094 75.3836 10.6283 74.6481 10.6283C74.1444 10.6283 73.6609 10.7138 73.1975 10.8849C72.7341 11.0459 72.3361 11.2724 72.0037 11.5643L71.5201 10.7641C71.9231 10.4219 72.4067 10.1603 72.9708 9.9791C73.535 9.78787 74.1293 9.69226 74.7539 9.69226ZM74.3761 16.9236C74.9806 16.9236 75.4994 16.7877 75.9326 16.516C76.3658 16.2342 76.6881 15.8316 76.8997 15.3083V14.0099H74.4064C73.0464 14.0099 72.3664 14.483 72.3664 15.429C72.3664 15.892 72.5427 16.2594 72.8953 16.5311C73.2479 16.7928 73.7415 16.9236 74.3761 16.9236Z" fill="white"/>
<path d="M90.7996 9.69226C91.7969 9.69226 92.5777 9.9791 93.1418 10.5528C93.716 11.1265 94.0032 11.9719 94.0032 13.089V17.6936H92.9303V13.1947C92.9303 12.3694 92.7288 11.7404 92.3258 11.3076C91.9329 10.8748 91.3738 10.6585 90.6485 10.6585C89.8224 10.6585 89.1726 10.9151 88.6992 11.4284C88.2257 11.9316 87.9889 12.6311 87.9889 13.5268V17.6936H86.916V13.1947C86.916 12.3694 86.7146 11.7404 86.3116 11.3076C85.9187 10.8748 85.3546 10.6585 84.6192 10.6585C83.8032 10.6585 83.1534 10.9151 82.6698 11.4284C82.1963 11.9316 81.9596 12.6311 81.9596 13.5268V17.6936H80.8867V9.75265H81.9143V11.2019C82.1963 10.7188 82.5892 10.3465 83.0929 10.0848C83.5966 9.8231 84.1759 9.69226 84.8307 9.69226C85.4956 9.69226 86.0698 9.83316 86.5534 10.115C87.047 10.3968 87.4147 10.8145 87.6565 11.368C87.9486 10.8446 88.3667 10.437 88.9107 10.1452C89.4648 9.84323 90.0944 9.69226 90.7996 9.69226Z" fill="white"/>
<path d="M57.9997 38.9028C57.046 38.9028 56.1662 38.7283 55.3603 38.3794C54.9183 38.1775 54.5204 37.9296 54.1665 37.6359C53.6737 37.2272 53.6981 36.4995 54.1078 36.008C54.674 35.3296 55.7112 35.4125 56.476 35.8545C56.9046 36.1019 57.3587 36.2256 57.8385 36.2256C59.1683 36.2256 59.8332 35.4473 59.8332 33.8907V27.1877H54.8767V24.5709H63.077V33.7095C63.077 35.4406 62.6472 36.7423 61.7876 37.6145C60.9279 38.4734 59.6653 38.9028 57.9997 38.9028Z" fill="#007AFF"/>
<path d="M70.4519 27.6709C72.1309 27.6709 73.4203 28.0735 74.3203 28.8786C75.2202 29.6704 75.6702 30.8714 75.6702 32.4817V38.6613H72.7286V37.3127C72.1376 38.3192 71.0361 38.8224 69.4243 38.8224C68.5915 38.8224 67.8662 38.6815 67.2483 38.3997C66.6438 38.1179 66.1804 37.7287 65.8581 37.2322C65.5357 36.7357 65.3745 36.1721 65.3745 35.5413C65.3745 34.5349 65.7506 33.7432 66.5028 33.1661C67.2684 32.5891 68.4437 32.3006 70.0287 32.3006H72.5271C72.5271 31.6162 72.3189 31.0928 71.9025 30.7305C71.4861 30.3548 70.8615 30.1669 70.0287 30.1669C69.4512 30.1669 68.8803 30.2608 68.3161 30.4487C67.7654 30.6232 67.2953 30.8647 66.9058 31.1733L65.7775 28.9793C66.3685 28.5633 67.0737 28.2412 67.893 28.0131C68.7258 27.785 69.5788 27.6709 70.4519 27.6709ZM70.2101 36.7088C70.7474 36.7088 71.2242 36.5881 71.6406 36.3465C72.057 36.0915 72.3525 35.7225 72.5271 35.2394V34.1323H70.3713C69.0818 34.1323 68.437 34.555 68.437 35.4004C68.437 35.803 68.5915 36.1251 68.9004 36.3666C69.2228 36.5948 69.6594 36.7088 70.2101 36.7088Z" fill="#007AFF"/>
<path d="M85.1033 27.6709C86.4465 27.6709 87.5278 28.0735 88.3472 28.8786C89.18 29.6838 89.5964 30.8781 89.5964 32.4616V38.6614H86.4533V32.9447C86.4533 32.0859 86.2652 31.4484 85.8891 31.0324C85.513 30.603 84.969 30.3883 84.2571 30.3883C83.4646 30.3883 82.8333 30.6366 82.3632 31.1331C81.8931 31.6162 81.658 32.3408 81.658 33.307V38.6614H78.5149V27.8319H81.517V29.1001C81.9334 28.6438 82.4505 28.2949 83.0684 28.0534C83.6862 27.7984 84.3646 27.6709 85.1033 27.6709Z" fill="#007AFF"/>
<path d="M102.197 31.3948H105.179V37.1114C104.413 37.6884 103.527 38.1313 102.519 38.4399C101.512 38.7486 100.498 38.9029 99.4769 38.9029C98.0128 38.9029 96.6964 38.5942 95.5278 37.977C94.3592 37.3462 93.4391 36.4807 92.7675 35.3803C92.1094 34.2665 91.7803 33.0118 91.7803 31.6162C91.7803 30.2206 92.1094 28.9726 92.7675 27.8722C93.4391 26.7584 94.3659 25.8928 95.548 25.2755C96.73 24.6448 98.0598 24.3295 99.5373 24.3295C100.773 24.3295 101.895 24.5375 102.902 24.9535C103.909 25.3695 104.756 25.9733 105.441 26.7651L103.345 28.6975C102.338 27.6373 101.122 27.1073 99.6985 27.1073C98.7985 27.1073 97.9993 27.2951 97.3009 27.6709C96.6024 28.0466 96.0584 28.5767 95.6689 29.2611C95.2793 29.9455 95.0846 30.7305 95.0846 31.6162C95.0846 32.4884 95.2793 33.2668 95.6689 33.9511C96.0584 34.6355 96.5957 35.1723 97.2807 35.5615C97.9792 35.9372 98.7717 36.1251 99.6582 36.1251C100.598 36.1251 101.445 35.9238 102.197 35.5212V31.3948Z" fill="#007AFF"/>
<path d="M113.147 38.8224C112.005 38.8224 110.978 38.5875 110.064 38.1179C109.164 37.6348 108.459 36.9705 107.949 36.1251C107.438 35.2797 107.183 34.3202 107.183 33.2466C107.183 32.1731 107.438 31.2136 107.949 30.3682C108.459 29.5228 109.164 28.8652 110.064 28.3955C110.978 27.9124 112.005 27.6709 113.147 27.6709C114.289 27.6709 115.31 27.9124 116.209 28.3955C117.109 28.8652 117.815 29.5228 118.325 30.3682C118.835 31.2136 119.091 32.1731 119.091 33.2466C119.091 34.3202 118.835 35.2797 118.325 36.1251C117.815 36.9705 117.109 37.6348 116.209 38.1179C115.31 38.5875 114.289 38.8224 113.147 38.8224ZM113.147 36.2459C113.953 36.2459 114.611 35.9775 115.121 35.4407C115.645 34.8905 115.907 34.1592 115.907 33.2466C115.907 32.3341 115.645 31.6095 115.121 31.0727C114.611 30.5225 113.953 30.2474 113.147 30.2474C112.341 30.2474 111.676 30.5225 111.152 31.0727C110.628 31.6095 110.367 32.3341 110.367 33.2466C110.367 34.1592 110.628 34.8905 111.152 35.4407C111.676 35.9775 112.341 36.2459 113.147 36.2459Z" fill="#007AFF"/>
<path d="M128.244 38.9029C126.78 38.9029 125.457 38.5875 124.275 37.9568C123.106 37.3261 122.186 36.4606 121.514 35.3602C120.856 34.2464 120.527 32.9984 120.527 31.6162C120.527 30.234 120.856 28.9927 121.514 27.8923C122.186 26.7785 123.106 25.9062 124.275 25.2755C125.457 24.6448 126.78 24.3295 128.244 24.3295C129.708 24.3295 131.024 24.6448 132.193 25.2755C133.361 25.9062 134.282 26.7785 134.953 27.8923C135.625 28.9927 135.961 30.234 135.961 31.6162C135.961 32.9984 135.625 34.2464 134.953 35.3602C134.282 36.4606 133.361 37.3261 132.193 37.9568C131.024 38.5875 129.708 38.9029 128.244 38.9029ZM128.244 36.1251C129.077 36.1251 129.829 35.9372 130.5 35.5615C131.172 35.1723 131.696 34.6355 132.072 33.9511C132.462 33.2668 132.656 32.4884 132.656 31.6162C132.656 30.7439 132.462 29.9656 132.072 29.2812C131.696 28.5968 131.172 28.0668 130.5 27.691C129.829 27.3019 129.077 27.1073 128.244 27.1073C127.411 27.1073 126.659 27.3019 125.987 27.691C125.316 28.0668 124.785 28.5968 124.396 29.2812C124.019 29.9656 123.831 30.7439 123.831 31.6162C123.831 32.4884 124.019 33.2668 124.396 33.9511C124.785 34.6355 125.316 35.1723 125.987 35.5615C126.659 35.9372 127.411 36.1251 128.244 36.1251Z" fill="#007AFF"/>
</g>
<defs>
<clipPath id="clip0_33_627">
<rect width="136" height="39" fill="white" transform="translate(0 0.5)"/>
</clipPath>
</defs>
</svg>
