<svg xmlns="http://www.w3.org/2000/svg" version="1.1" xmlns:xlink="http://www.w3.org/1999/xlink" xmlns:svgjs="http://svgjs.com/svgjs" width="512" height="512" x="0" y="0" viewBox="0 0 176 176" style="enable-background:new 0 0 512 512" xml:space="preserve" class=""><g><g xmlns="http://www.w3.org/2000/svg" id="Layer_2" data-name="Layer 2"><g id="_52.blogger" data-name="52.blogger"><circle id="background" cx="88" cy="88" fill="#3c4859" r="88" data-original="#f2780c" class=""></circle><path id="icon" d="m121.61 75.78v-15.28c0-16.5-17.11-27.5-28.11-27.5h-27.81c-19.25 0-32.69 13.75-32.69 33v44c0 18.95 13.44 33 33 33h44.31c19.25 0 32.69-14 32.69-33v-11c0-16.5-4.89-23.22-21.39-23.22zm-53.47-15.28h24.44a7.64 7.64 0 0 1 0 15.28h-24.44a7.64 7.64 0 0 1 0-15.28zm39.72 55h-39.72a7.64 7.64 0 0 1 0-15.28h39.72a7.64 7.64 0 0 1 0 15.28z" fill="#ffffff" data-original="#ffffff"></path></g></g></g></svg>